<svg xmlns="http://www.w3.org/2000/svg" xmlns:xlink="http://www.w3.org/1999/xlink" contentStyleType="text/css" height="334px" preserveAspectRatio="none" style="width:1287px;height:334px;background:#FFFFFF;" version="1.1" viewBox="0 0 1287 334" width="1287px" zoomAndPan="magnify"><defs/><g><!--cluster main--><g id="cluster_main"><path d="M8.5,6.0137 L42.1758,6.0137 A3.75,3.75 0 0 1 44.6758,8.5137 L51.6758,30.6348 L1277.5,30.6348 A2.5,2.5 0 0 1 1280,33.1348 L1280,324.5137 A2.5,2.5 0 0 1 1277.5,327.0137 L8.5,327.0137 A2.5,2.5 0 0 1 6,324.5137 L6,8.5137 A2.5,2.5 0 0 1 8.5,6.0137 " fill="none" style="stroke:#000000;stroke-width:1.5;"/><line style="stroke:#000000;stroke-width:1.5;" x1="6" x2="51.6758" y1="30.6348" y2="30.6348"/><text fill="#000000" font-family="sans-serif" font-size="14" font-weight="bold" lengthAdjust="spacing" textLength="32.6758" x="10" y="23.1211">main</text></g><!--class BaseModule--><g id="elem_BaseModule"><rect codeLine="2" fill="#F1F1F1" height="66.6211" id="BaseModule" rx="2.5" ry="2.5" style="stroke:#181818;stroke-width:0.5;" width="184.7441" x="810.5" y="61.5137"/><ellipse cx="859.7085" cy="77.5137" fill="#7FFFD4" rx="11" ry="11" style="stroke:#181818;stroke-width:1.0;"/><path d="M857.8179,82.0762 Q857.5991,82.3418 857.4585,82.4199 Q857.3179,82.498 857.1304,82.498 Q856.7397,82.498 856.4897,82.2324 Q856.2554,81.9668 856.2554,81.373 L856.2554,80.2168 Q856.2554,79.6074 856.4897,79.3574 Q856.7397,79.0918 857.1304,79.0918 Q857.4272,79.0918 857.6304,79.248 Q857.8335,79.4043 857.9429,79.7793 Q858.0522,80.1387 858.1616,80.2793 Q858.4116,80.5293 859.021,80.7949 Q859.6304,81.0605 860.3647,81.0605 Q861.5054,81.0605 862.2241,80.5293 Q862.6929,80.2012 862.6929,79.7324 Q862.6929,79.4199 862.4741,79.1387 Q862.2554,78.8574 861.7397,78.6855 Q861.4116,78.5605 860.2554,78.3418 Q858.8647,78.0762 858.146,77.7168 Q857.4272,77.3574 857.0054,76.7012 Q856.5991,76.0293 856.5991,75.248 Q856.5991,74.0293 857.6147,73.123 Q858.646,72.2012 860.2866,72.2012 Q860.9429,72.2012 861.4897,72.3418 Q862.0522,72.4824 862.521,72.7793 Q862.8491,72.4668 863.1772,72.4668 Q863.5522,72.4668 863.7866,72.7324 Q864.021,72.9824 864.021,73.5918 L864.021,74.873 Q864.021,75.4824 863.7866,75.748 Q863.5522,75.998 863.1772,75.998 Q862.8647,75.998 862.6304,75.8105 Q862.4429,75.6699 862.3491,75.248 Q862.271,74.8262 862.1304,74.6387 Q861.8804,74.3262 861.396,74.123 Q860.9272,73.9043 860.2866,73.9043 Q859.3647,73.9043 858.8335,74.3262 Q858.3022,74.748 858.3022,75.2168 Q858.3022,75.5293 858.521,75.8262 Q858.7397,76.123 859.1616,76.2949 Q859.4429,76.4043 860.7397,76.6699 Q862.0522,76.9199 862.7554,77.2324 Q863.4585,77.5293 863.9272,78.1855 Q864.396,78.8418 864.396,79.748 Q864.396,81.0137 863.5054,81.7637 Q862.3179,82.7637 860.4897,82.7637 Q859.7866,82.7637 859.1147,82.5918 Q858.4585,82.4199 857.8179,82.0762 Z " fill="#000000"/><text fill="#000000" font-family="sans-serif" font-size="14" lengthAdjust="spacing" textLength="77.8271" x="880.2085" y="83.3105">BaseModule</text><line style="stroke:#181818;stroke-width:0.5;" x1="811.5" x2="994.2441" y1="93.5137" y2="93.5137"/><ellipse cx="821.5" cy="108.3242" fill="none" rx="3" ry="3" style="stroke:#038048;stroke-width:1.0;"/><text fill="#000000" font-family="sans-serif" font-size="14" lengthAdjust="spacing" textLength="158.7441" x="830.5" y="112.6211">ControlData *ControlData</text><line style="stroke:#181818;stroke-width:0.5;" x1="811.5" x2="994.2441" y1="120.1348" y2="120.1348"/></g><!--class Compressor--><g id="elem_Compressor"><rect codeLine="6" fill="#F1F1F1" height="66.6211" id="Compressor" rx="2.5" ry="2.5" style="stroke:#181818;stroke-width:0.5;" width="203.3857" x="452.5" y="225.5137"/><ellipse cx="511.8223" cy="241.5137" fill="#7FFFD4" rx="11" ry="11" style="stroke:#181818;stroke-width:1.0;"/><path d="M509.9316,246.0762 Q509.7129,246.3418 509.5723,246.4199 Q509.4316,246.498 509.2441,246.498 Q508.8535,246.498 508.6035,246.2324 Q508.3691,245.9668 508.3691,245.373 L508.3691,244.2168 Q508.3691,243.6074 508.6035,243.3574 Q508.8535,243.0918 509.2441,243.0918 Q509.541,243.0918 509.7441,243.248 Q509.9473,243.4043 510.0566,243.7793 Q510.166,244.1387 510.2754,244.2793 Q510.5254,244.5293 511.1348,244.7949 Q511.7441,245.0605 512.4785,245.0605 Q513.6191,245.0605 514.3379,244.5293 Q514.8066,244.2012 514.8066,243.7324 Q514.8066,243.4199 514.5879,243.1387 Q514.3691,242.8574 513.8535,242.6855 Q513.5254,242.5605 512.3691,242.3418 Q510.9785,242.0762 510.2598,241.7168 Q509.541,241.3574 509.1191,240.7012 Q508.7129,240.0293 508.7129,239.248 Q508.7129,238.0293 509.7285,237.123 Q510.7598,236.2012 512.4004,236.2012 Q513.0566,236.2012 513.6035,236.3418 Q514.166,236.4824 514.6348,236.7793 Q514.9629,236.4668 515.291,236.4668 Q515.666,236.4668 515.9004,236.7324 Q516.1348,236.9824 516.1348,237.5918 L516.1348,238.873 Q516.1348,239.4824 515.9004,239.748 Q515.666,239.998 515.291,239.998 Q514.9785,239.998 514.7441,239.8105 Q514.5566,239.6699 514.4629,239.248 Q514.3848,238.8262 514.2441,238.6387 Q513.9941,238.3262 513.5098,238.123 Q513.041,237.9043 512.4004,237.9043 Q511.4785,237.9043 510.9473,238.3262 Q510.416,238.748 510.416,239.2168 Q510.416,239.5293 510.6348,239.8262 Q510.8535,240.123 511.2754,240.2949 Q511.5566,240.4043 512.8535,240.6699 Q514.166,240.9199 514.8691,241.2324 Q515.5723,241.5293 516.041,242.1855 Q516.5098,242.8418 516.5098,243.748 Q516.5098,245.0137 515.6191,245.7637 Q514.4316,246.7637 512.6035,246.7637 Q511.9004,246.7637 511.2285,246.5918 Q510.5723,246.4199 509.9316,246.0762 Z " fill="#000000"/><text fill="#000000" font-family="sans-serif" font-size="14" lengthAdjust="spacing" textLength="76.2412" x="532.3223" y="247.3105">Compressor</text><line style="stroke:#181818;stroke-width:0.5;" x1="453.5" x2="654.8857" y1="257.5137" y2="257.5137"/><line style="stroke:#181818;stroke-width:0.5;" x1="453.5" x2="654.8857" y1="265.5137" y2="265.5137"/><ellipse cx="463.5" cy="280.3242" fill="#84BE84" rx="3" ry="3" style="stroke:#038048;stroke-width:1.0;"/><text fill="#000000" font-family="sans-serif" font-size="14" lengthAdjust="spacing" textLength="177.3857" x="472.5" y="284.6211">Accept(visitor ModuleVisitor)</text></g><!--class CompressorData--><g id="elem_CompressorData"><rect codeLine="10" fill="#F1F1F1" height="103.8633" id="CompressorData" rx="2.5" ry="2.5" style="stroke:#181818;stroke-width:0.5;" width="158.2891" x="591" y="43.0137"/><ellipse cx="615.214" cy="59.0137" fill="#7FFFD4" rx="11" ry="11" style="stroke:#181818;stroke-width:1.0;"/><path d="M613.3234,63.5762 Q613.1046,63.8418 612.964,63.9199 Q612.8234,63.998 612.6359,63.998 Q612.2453,63.998 611.9953,63.7324 Q611.7609,63.4668 611.7609,62.873 L611.7609,61.7168 Q611.7609,61.1074 611.9953,60.8574 Q612.2453,60.5918 612.6359,60.5918 Q612.9328,60.5918 613.1359,60.748 Q613.339,60.9043 613.4484,61.2793 Q613.5578,61.6387 613.6671,61.7793 Q613.9171,62.0293 614.5265,62.2949 Q615.1359,62.5605 615.8703,62.5605 Q617.0109,62.5605 617.7296,62.0293 Q618.1984,61.7012 618.1984,61.2324 Q618.1984,60.9199 617.9796,60.6387 Q617.7609,60.3574 617.2453,60.1855 Q616.9171,60.0605 615.7609,59.8418 Q614.3703,59.5762 613.6515,59.2168 Q612.9328,58.8574 612.5109,58.2012 Q612.1046,57.5293 612.1046,56.748 Q612.1046,55.5293 613.1203,54.623 Q614.1515,53.7012 615.7921,53.7012 Q616.4484,53.7012 616.9953,53.8418 Q617.5578,53.9824 618.0265,54.2793 Q618.3546,53.9668 618.6828,53.9668 Q619.0578,53.9668 619.2921,54.2324 Q619.5265,54.4824 619.5265,55.0918 L619.5265,56.373 Q619.5265,56.9824 619.2921,57.248 Q619.0578,57.498 618.6828,57.498 Q618.3703,57.498 618.1359,57.3105 Q617.9484,57.1699 617.8546,56.748 Q617.7765,56.3262 617.6359,56.1387 Q617.3859,55.8262 616.9015,55.623 Q616.4328,55.4043 615.7921,55.4043 Q614.8703,55.4043 614.339,55.8262 Q613.8078,56.248 613.8078,56.7168 Q613.8078,57.0293 614.0265,57.3262 Q614.2453,57.623 614.6671,57.7949 Q614.9484,57.9043 616.2453,58.1699 Q617.5578,58.4199 618.2609,58.7324 Q618.964,59.0293 619.4328,59.6855 Q619.9015,60.3418 619.9015,61.248 Q619.9015,62.5137 619.0109,63.2637 Q617.8234,64.2637 615.9953,64.2637 Q615.2921,64.2637 614.6203,64.0918 Q613.964,63.9199 613.3234,63.5762 Z " fill="#000000"/><text fill="#000000" font-family="sans-serif" font-size="14" lengthAdjust="spacing" textLength="105.8135" x="631.2616" y="64.8105">CompressorData</text><line style="stroke:#181818;stroke-width:0.5;" x1="592" x2="748.2891" y1="75.0137" y2="75.0137"/><ellipse cx="602" cy="89.8242" fill="none" rx="3" ry="3" style="stroke:#038048;stroke-width:1.0;"/><text fill="#000000" font-family="sans-serif" font-size="14" lengthAdjust="spacing" textLength="63.8203" x="611" y="94.1211">ValueX int</text><ellipse cx="602" cy="108.4453" fill="none" rx="3" ry="3" style="stroke:#038048;stroke-width:1.0;"/><text fill="#000000" font-family="sans-serif" font-size="14" lengthAdjust="spacing" textLength="91.0684" x="611" y="112.7422">ValueY float64</text><ellipse cx="602" cy="127.0664" fill="none" rx="3" ry="3" style="stroke:#038048;stroke-width:1.0;"/><text fill="#000000" font-family="sans-serif" font-size="14" lengthAdjust="spacing" textLength="132.2891" x="611" y="131.3633">SomethingElse string</text><line style="stroke:#181818;stroke-width:0.5;" x1="592" x2="748.2891" y1="138.877" y2="138.877"/></g><!--class ControlCore--><g id="elem_ControlCore"><rect codeLine="16" fill="#F1F1F1" height="48" id="ControlCore" rx="2.5" ry="2.5" style="stroke:#181818;stroke-width:0.5;" width="107.4756" x="690.5" y="235.0137"/><ellipse cx="705.5" cy="251.0137" fill="#7FFFD4" rx="11" ry="11" style="stroke:#181818;stroke-width:1.0;"/><path d="M703.6094,255.5762 Q703.3906,255.8418 703.25,255.9199 Q703.1094,255.998 702.9219,255.998 Q702.5313,255.998 702.2813,255.7324 Q702.0469,255.4668 702.0469,254.873 L702.0469,253.7168 Q702.0469,253.1074 702.2813,252.8574 Q702.5313,252.5918 702.9219,252.5918 Q703.2188,252.5918 703.4219,252.748 Q703.625,252.9043 703.7344,253.2793 Q703.8438,253.6387 703.9531,253.7793 Q704.2031,254.0293 704.8125,254.2949 Q705.4219,254.5605 706.1563,254.5605 Q707.2969,254.5605 708.0156,254.0293 Q708.4844,253.7012 708.4844,253.2324 Q708.4844,252.9199 708.2656,252.6387 Q708.0469,252.3574 707.5313,252.1855 Q707.2031,252.0605 706.0469,251.8418 Q704.6563,251.5762 703.9375,251.2168 Q703.2188,250.8574 702.7969,250.2012 Q702.3906,249.5293 702.3906,248.748 Q702.3906,247.5293 703.4063,246.623 Q704.4375,245.7012 706.0781,245.7012 Q706.7344,245.7012 707.2813,245.8418 Q707.8438,245.9824 708.3125,246.2793 Q708.6406,245.9668 708.9688,245.9668 Q709.3438,245.9668 709.5781,246.2324 Q709.8125,246.4824 709.8125,247.0918 L709.8125,248.373 Q709.8125,248.9824 709.5781,249.248 Q709.3438,249.498 708.9688,249.498 Q708.6563,249.498 708.4219,249.3105 Q708.2344,249.1699 708.1406,248.748 Q708.0625,248.3262 707.9219,248.1387 Q707.6719,247.8262 707.1875,247.623 Q706.7188,247.4043 706.0781,247.4043 Q705.1563,247.4043 704.625,247.8262 Q704.0938,248.248 704.0938,248.7168 Q704.0938,249.0293 704.3125,249.3262 Q704.5313,249.623 704.9531,249.7949 Q705.2344,249.9043 706.5313,250.1699 Q707.8438,250.4199 708.5469,250.7324 Q709.25,251.0293 709.7188,251.6855 Q710.1875,252.3418 710.1875,253.248 Q710.1875,254.5137 709.2969,255.2637 Q708.1094,256.2637 706.2813,256.2637 Q705.5781,256.2637 704.9063,256.0918 Q704.25,255.9199 703.6094,255.5762 Z " fill="#000000"/><text fill="#000000" font-family="sans-serif" font-size="14" lengthAdjust="spacing" textLength="75.4756" x="719.5" y="256.8105">ControlCore</text><line style="stroke:#181818;stroke-width:0.5;" x1="691.5" x2="796.9756" y1="267.0137" y2="267.0137"/><line style="stroke:#181818;stroke-width:0.5;" x1="691.5" x2="796.9756" y1="275.0137" y2="275.0137"/></g><!--class ControlData--><g id="elem_ControlData"><rect codeLine="18" fill="#F1F1F1" height="103.8633" id="ControlData" rx="2.5" ry="2.5" style="stroke:#181818;stroke-width:0.5;" width="191.7578" x="833" y="207.0137"/><ellipse cx="887.2773" cy="223.0137" fill="#7FFFD4" rx="11" ry="11" style="stroke:#181818;stroke-width:1.0;"/><path d="M885.3867,227.5762 Q885.168,227.8418 885.0273,227.9199 Q884.8867,227.998 884.6992,227.998 Q884.3086,227.998 884.0586,227.7324 Q883.8242,227.4668 883.8242,226.873 L883.8242,225.7168 Q883.8242,225.1074 884.0586,224.8574 Q884.3086,224.5918 884.6992,224.5918 Q884.9961,224.5918 885.1992,224.748 Q885.4023,224.9043 885.5117,225.2793 Q885.6211,225.6387 885.7305,225.7793 Q885.9805,226.0293 886.5898,226.2949 Q887.1992,226.5605 887.9336,226.5605 Q889.0742,226.5605 889.793,226.0293 Q890.2617,225.7012 890.2617,225.2324 Q890.2617,224.9199 890.043,224.6387 Q889.8242,224.3574 889.3086,224.1855 Q888.9805,224.0605 887.8242,223.8418 Q886.4336,223.5762 885.7148,223.2168 Q884.9961,222.8574 884.5742,222.2012 Q884.168,221.5293 884.168,220.748 Q884.168,219.5293 885.1836,218.623 Q886.2148,217.7012 887.8555,217.7012 Q888.5117,217.7012 889.0586,217.8418 Q889.6211,217.9824 890.0898,218.2793 Q890.418,217.9668 890.7461,217.9668 Q891.1211,217.9668 891.3555,218.2324 Q891.5898,218.4824 891.5898,219.0918 L891.5898,220.373 Q891.5898,220.9824 891.3555,221.248 Q891.1211,221.498 890.7461,221.498 Q890.4336,221.498 890.1992,221.3105 Q890.0117,221.1699 889.918,220.748 Q889.8398,220.3262 889.6992,220.1387 Q889.4492,219.8262 888.9648,219.623 Q888.4961,219.4043 887.8555,219.4043 Q886.9336,219.4043 886.4023,219.8262 Q885.8711,220.248 885.8711,220.7168 Q885.8711,221.0293 886.0898,221.3262 Q886.3086,221.623 886.7305,221.7949 Q887.0117,221.9043 888.3086,222.1699 Q889.6211,222.4199 890.3242,222.7324 Q891.0273,223.0293 891.4961,223.6855 Q891.9648,224.3418 891.9648,225.248 Q891.9648,226.5137 891.0742,227.2637 Q889.8867,228.2637 888.0586,228.2637 Q887.3555,228.2637 886.6836,228.0918 Q886.0273,227.9199 885.3867,227.5762 Z " fill="#000000"/><text fill="#000000" font-family="sans-serif" font-size="14" lengthAdjust="spacing" textLength="74.7031" x="907.7773" y="228.8105">ControlData</text><line style="stroke:#181818;stroke-width:0.5;" x1="834" x2="1023.7578" y1="239.0137" y2="239.0137"/><rect fill="none" height="6" style="stroke:#C82930;stroke-width:1.0;" width="6" x="841" y="250.8242"/><text fill="#000000" font-family="sans-serif" font-size="14" lengthAdjust="spacing" textLength="100.3857" x="853" y="258.1211">once sync.Once</text><text fill="#000000" font-family="sans-serif" font-size="14" lengthAdjust="spacing" textLength="3.8896" x="853" y="276.7422">&#160;</text><ellipse cx="844" cy="291.0664" fill="none" rx="3" ry="3" style="stroke:#038048;stroke-width:1.0;"/><text fill="#000000" font-family="sans-serif" font-size="14" lengthAdjust="spacing" textLength="29.5723" x="853" y="295.3633">Data</text><text fill="#0000FF" font-family="sans-serif" font-size="14" lengthAdjust="spacing" textLength="27.2344" x="886.4619" y="295.3633">map</text><text fill="#000000" font-family="sans-serif" font-size="14" lengthAdjust="spacing" textLength="42.0137" x="913.6963" y="295.3633">[string]</text><text fill="#0000FF" font-family="sans-serif" font-size="14" lengthAdjust="spacing" textLength="53.6963" x="955.71" y="295.3633">interface</text><text fill="#000000" font-family="sans-serif" font-size="14" lengthAdjust="spacing" textLength="9.3516" x="1009.4063" y="295.3633">{}</text><line style="stroke:#181818;stroke-width:0.5;" x1="834" x2="1023.7578" y1="302.877" y2="302.877"/></g><!--class Dispenser--><g id="elem_Dispenser"><rect codeLine="24" fill="#F1F1F1" height="66.6211" id="Dispenser" rx="2.5" ry="2.5" style="stroke:#181818;stroke-width:0.5;" width="203.3857" x="1060.5" y="225.5137"/><ellipse cx="1126.4292" cy="241.5137" fill="#7FFFD4" rx="11" ry="11" style="stroke:#181818;stroke-width:1.0;"/><path d="M1124.5386,246.0762 Q1124.3198,246.3418 1124.1792,246.4199 Q1124.0386,246.498 1123.8511,246.498 Q1123.4604,246.498 1123.2104,246.2324 Q1122.9761,245.9668 1122.9761,245.373 L1122.9761,244.2168 Q1122.9761,243.6074 1123.2104,243.3574 Q1123.4604,243.0918 1123.8511,243.0918 Q1124.1479,243.0918 1124.3511,243.248 Q1124.5542,243.4043 1124.6636,243.7793 Q1124.7729,244.1387 1124.8823,244.2793 Q1125.1323,244.5293 1125.7417,244.7949 Q1126.3511,245.0605 1127.0854,245.0605 Q1128.2261,245.0605 1128.9448,244.5293 Q1129.4136,244.2012 1129.4136,243.7324 Q1129.4136,243.4199 1129.1948,243.1387 Q1128.9761,242.8574 1128.4604,242.6855 Q1128.1323,242.5605 1126.9761,242.3418 Q1125.5854,242.0762 1124.8667,241.7168 Q1124.1479,241.3574 1123.7261,240.7012 Q1123.3198,240.0293 1123.3198,239.248 Q1123.3198,238.0293 1124.3354,237.123 Q1125.3667,236.2012 1127.0073,236.2012 Q1127.6636,236.2012 1128.2104,236.3418 Q1128.7729,236.4824 1129.2417,236.7793 Q1129.5698,236.4668 1129.8979,236.4668 Q1130.2729,236.4668 1130.5073,236.7324 Q1130.7417,236.9824 1130.7417,237.5918 L1130.7417,238.873 Q1130.7417,239.4824 1130.5073,239.748 Q1130.2729,239.998 1129.8979,239.998 Q1129.5854,239.998 1129.3511,239.8105 Q1129.1636,239.6699 1129.0698,239.248 Q1128.9917,238.8262 1128.8511,238.6387 Q1128.6011,238.3262 1128.1167,238.123 Q1127.6479,237.9043 1127.0073,237.9043 Q1126.0854,237.9043 1125.5542,238.3262 Q1125.0229,238.748 1125.0229,239.2168 Q1125.0229,239.5293 1125.2417,239.8262 Q1125.4604,240.123 1125.8823,240.2949 Q1126.1636,240.4043 1127.4604,240.6699 Q1128.7729,240.9199 1129.4761,241.2324 Q1130.1792,241.5293 1130.6479,242.1855 Q1131.1167,242.8418 1131.1167,243.748 Q1131.1167,245.0137 1130.2261,245.7637 Q1129.0386,246.7637 1127.2104,246.7637 Q1126.5073,246.7637 1125.8354,246.5918 Q1125.1792,246.4199 1124.5386,246.0762 Z " fill="#000000"/><text fill="#000000" font-family="sans-serif" font-size="14" lengthAdjust="spacing" textLength="63.0273" x="1146.9292" y="247.3105">Dispenser</text><line style="stroke:#181818;stroke-width:0.5;" x1="1061.5" x2="1262.8857" y1="257.5137" y2="257.5137"/><line style="stroke:#181818;stroke-width:0.5;" x1="1061.5" x2="1262.8857" y1="265.5137" y2="265.5137"/><ellipse cx="1071.5" cy="280.3242" fill="#84BE84" rx="3" ry="3" style="stroke:#038048;stroke-width:1.0;"/><text fill="#000000" font-family="sans-serif" font-size="14" lengthAdjust="spacing" textLength="177.3857" x="1080.5" y="284.6211">Accept(visitor ModuleVisitor)</text></g><!--class DispenserData--><g id="elem_DispenserData"><rect codeLine="28" fill="#F1F1F1" height="103.8633" id="DispenserData" rx="2.5" ry="2.5" style="stroke:#181818;stroke-width:0.5;" width="221.3438" x="283.5" y="43.0137"/><ellipse cx="343.6221" cy="59.0137" fill="#7FFFD4" rx="11" ry="11" style="stroke:#181818;stroke-width:1.0;"/><path d="M341.7314,63.5762 Q341.5127,63.8418 341.3721,63.9199 Q341.2314,63.998 341.0439,63.998 Q340.6533,63.998 340.4033,63.7324 Q340.1689,63.4668 340.1689,62.873 L340.1689,61.7168 Q340.1689,61.1074 340.4033,60.8574 Q340.6533,60.5918 341.0439,60.5918 Q341.3408,60.5918 341.5439,60.748 Q341.7471,60.9043 341.8564,61.2793 Q341.9658,61.6387 342.0752,61.7793 Q342.3252,62.0293 342.9346,62.2949 Q343.5439,62.5605 344.2783,62.5605 Q345.4189,62.5605 346.1377,62.0293 Q346.6064,61.7012 346.6064,61.2324 Q346.6064,60.9199 346.3877,60.6387 Q346.1689,60.3574 345.6533,60.1855 Q345.3252,60.0605 344.1689,59.8418 Q342.7783,59.5762 342.0596,59.2168 Q341.3408,58.8574 340.9189,58.2012 Q340.5127,57.5293 340.5127,56.748 Q340.5127,55.5293 341.5283,54.623 Q342.5596,53.7012 344.2002,53.7012 Q344.8564,53.7012 345.4033,53.8418 Q345.9658,53.9824 346.4346,54.2793 Q346.7627,53.9668 347.0908,53.9668 Q347.4658,53.9668 347.7002,54.2324 Q347.9346,54.4824 347.9346,55.0918 L347.9346,56.373 Q347.9346,56.9824 347.7002,57.248 Q347.4658,57.498 347.0908,57.498 Q346.7783,57.498 346.5439,57.3105 Q346.3564,57.1699 346.2627,56.748 Q346.1846,56.3262 346.0439,56.1387 Q345.7939,55.8262 345.3096,55.623 Q344.8408,55.4043 344.2002,55.4043 Q343.2783,55.4043 342.7471,55.8262 Q342.2158,56.248 342.2158,56.7168 Q342.2158,57.0293 342.4346,57.3262 Q342.6533,57.623 343.0752,57.7949 Q343.3564,57.9043 344.6533,58.1699 Q345.9658,58.4199 346.6689,58.7324 Q347.3721,59.0293 347.8408,59.6855 Q348.3096,60.3418 348.3096,61.248 Q348.3096,62.5137 347.4189,63.2637 Q346.2314,64.2637 344.4033,64.2637 Q343.7002,64.2637 343.0283,64.0918 Q342.3721,63.9199 341.7314,63.5762 Z " fill="#000000"/><text fill="#000000" font-family="sans-serif" font-size="14" lengthAdjust="spacing" textLength="92.5996" x="364.1221" y="64.8105">DispenserData</text><line style="stroke:#181818;stroke-width:0.5;" x1="284.5" x2="503.8438" y1="75.0137" y2="75.0137"/><ellipse cx="294.5" cy="89.8242" fill="none" rx="3" ry="3" style="stroke:#038048;stroke-width:1.0;"/><text fill="#000000" font-family="sans-serif" font-size="14" lengthAdjust="spacing" textLength="63.8203" x="303.5" y="94.1211">ValueA int</text><ellipse cx="294.5" cy="108.4453" fill="none" rx="3" ry="3" style="stroke:#038048;stroke-width:1.0;"/><text fill="#000000" font-family="sans-serif" font-size="14" lengthAdjust="spacing" textLength="91.0684" x="303.5" y="112.7422">ValueB float64</text><ellipse cx="294.5" cy="127.0664" fill="none" rx="3" ry="3" style="stroke:#038048;stroke-width:1.0;"/><text fill="#000000" font-family="sans-serif" font-size="14" lengthAdjust="spacing" textLength="195.3438" x="303.5" y="131.3633">SomethingElse EmbeddedData</text><line style="stroke:#181818;stroke-width:0.5;" x1="284.5" x2="503.8438" y1="138.877" y2="138.877"/></g><!--class EmbeddedData--><g id="elem_EmbeddedData"><rect codeLine="34" fill="#F1F1F1" height="85.2422" id="EmbeddedData" rx="2.5" ry="2.5" style="stroke:#181818;stroke-width:0.5;" width="129.2891" x="288.5" y="216.5137"/><ellipse cx="303.5" cy="232.5137" fill="#7FFFD4" rx="11" ry="11" style="stroke:#181818;stroke-width:1.0;"/><path d="M301.6094,237.0762 Q301.3906,237.3418 301.25,237.4199 Q301.1094,237.498 300.9219,237.498 Q300.5313,237.498 300.2813,237.2324 Q300.0469,236.9668 300.0469,236.373 L300.0469,235.2168 Q300.0469,234.6074 300.2813,234.3574 Q300.5313,234.0918 300.9219,234.0918 Q301.2188,234.0918 301.4219,234.248 Q301.625,234.4043 301.7344,234.7793 Q301.8438,235.1387 301.9531,235.2793 Q302.2031,235.5293 302.8125,235.7949 Q303.4219,236.0605 304.1563,236.0605 Q305.2969,236.0605 306.0156,235.5293 Q306.4844,235.2012 306.4844,234.7324 Q306.4844,234.4199 306.2656,234.1387 Q306.0469,233.8574 305.5313,233.6855 Q305.2031,233.5605 304.0469,233.3418 Q302.6563,233.0762 301.9375,232.7168 Q301.2188,232.3574 300.7969,231.7012 Q300.3906,231.0293 300.3906,230.248 Q300.3906,229.0293 301.4063,228.123 Q302.4375,227.2012 304.0781,227.2012 Q304.7344,227.2012 305.2813,227.3418 Q305.8438,227.4824 306.3125,227.7793 Q306.6406,227.4668 306.9688,227.4668 Q307.3438,227.4668 307.5781,227.7324 Q307.8125,227.9824 307.8125,228.5918 L307.8125,229.873 Q307.8125,230.4824 307.5781,230.748 Q307.3438,230.998 306.9688,230.998 Q306.6563,230.998 306.4219,230.8105 Q306.2344,230.6699 306.1406,230.248 Q306.0625,229.8262 305.9219,229.6387 Q305.6719,229.3262 305.1875,229.123 Q304.7188,228.9043 304.0781,228.9043 Q303.1563,228.9043 302.625,229.3262 Q302.0938,229.748 302.0938,230.2168 Q302.0938,230.5293 302.3125,230.8262 Q302.5313,231.123 302.9531,231.2949 Q303.2344,231.4043 304.5313,231.6699 Q305.8438,231.9199 306.5469,232.2324 Q307.25,232.5293 307.7188,233.1855 Q308.1875,233.8418 308.1875,234.748 Q308.1875,236.0137 307.2969,236.7637 Q306.1094,237.7637 304.2813,237.7637 Q303.5781,237.7637 302.9063,237.5918 Q302.25,237.4199 301.6094,237.0762 Z " fill="#000000"/><text fill="#000000" font-family="sans-serif" font-size="14" lengthAdjust="spacing" textLength="97.2891" x="317.5" y="238.3105">EmbeddedData</text><line style="stroke:#181818;stroke-width:0.5;" x1="289.5" x2="416.7891" y1="248.5137" y2="248.5137"/><ellipse cx="299.5" cy="263.3242" fill="none" rx="3" ry="3" style="stroke:#038048;stroke-width:1.0;"/><text fill="#000000" font-family="sans-serif" font-size="14" lengthAdjust="spacing" textLength="49.7998" x="308.5" y="267.6211">Id string</text><ellipse cx="299.5" cy="281.9453" fill="none" rx="3" ry="3" style="stroke:#038048;stroke-width:1.0;"/><text fill="#000000" font-family="sans-serif" font-size="14" lengthAdjust="spacing" textLength="88.7236" x="308.5" y="286.2422">Payload []byte</text><line style="stroke:#181818;stroke-width:0.5;" x1="289.5" x2="416.7891" y1="293.7559" y2="293.7559"/></g><!--class ModuleVisitor--><g id="elem_ModuleVisitor"><rect codeLine="39" fill="#F1F1F1" height="85.2422" id="ModuleVisitor" rx="2.5" ry="2.5" style="stroke:#181818;stroke-width:0.5;" width="223.5928" x="24" y="52.5137"/><ellipse cx="89.1396" cy="68.5137" fill="#B4A7E5" rx="11" ry="11" style="stroke:#181818;stroke-width:1.0;"/><path d="M90.0928,65.1543 L90.0928,71.8105 L91.8115,71.8105 Q92.4209,71.8105 92.6865,72.0449 Q92.9521,72.2793 92.9521,72.6699 Q92.9521,73.0449 92.6865,73.2793 Q92.4209,73.5137 91.8115,73.5137 L86.6709,73.5137 Q86.0615,73.5137 85.7959,73.2793 Q85.5303,73.0449 85.5303,72.6543 Q85.5303,72.2793 85.7959,72.0449 Q86.0615,71.8105 86.6709,71.8105 L88.3896,71.8105 L88.3896,65.1543 L86.6709,65.1543 Q86.0615,65.1543 85.7959,64.9199 Q85.5303,64.6855 85.5303,64.2949 Q85.5303,63.9199 85.7959,63.6855 Q86.0615,63.4512 86.6709,63.4512 L91.8115,63.4512 Q92.4209,63.4512 92.6865,63.6855 Q92.9521,63.9199 92.9521,64.2949 Q92.9521,64.6855 92.6865,64.9199 Q92.4209,65.1543 91.8115,65.1543 L90.0928,65.1543 Z " fill="#000000"/><text fill="#000000" font-family="sans-serif" font-size="14" font-style="italic" lengthAdjust="spacing" textLength="84.8135" x="109.6396" y="74.3105">ModuleVisitor</text><line style="stroke:#181818;stroke-width:0.5;" x1="25" x2="246.5928" y1="84.5137" y2="84.5137"/><line style="stroke:#181818;stroke-width:0.5;" x1="25" x2="246.5928" y1="92.5137" y2="92.5137"/><ellipse cx="35" cy="107.3242" fill="#84BE84" rx="3" ry="3" style="stroke:#038048;stroke-width:1.0;"/><text fill="#000000" font-family="sans-serif" font-size="14" lengthAdjust="spacing" textLength="197.5928" x="44" y="111.6211">VisitCompressor( *Compressor)</text><ellipse cx="35" cy="125.9453" fill="#84BE84" rx="3" ry="3" style="stroke:#038048;stroke-width:1.0;"/><text fill="#000000" font-family="sans-serif" font-size="14" lengthAdjust="spacing" textLength="171.165" x="44" y="130.2422">VisitDispenser( *Dispenser)</text></g><!--class ReportGeneratorVisitor--><g id="elem_ReportGeneratorVisitor"><rect codeLine="44" fill="#F1F1F1" height="85.2422" id="ReportGeneratorVisitor" rx="2.5" ry="2.5" style="stroke:#181818;stroke-width:0.5;" width="230.5928" x="22.5" y="216.5137"/><ellipse cx="62.0887" cy="232.5137" fill="#7FFFD4" rx="11" ry="11" style="stroke:#181818;stroke-width:1.0;"/><path d="M60.1981,237.0762 Q59.9793,237.3418 59.8387,237.4199 Q59.6981,237.498 59.5106,237.498 Q59.12,237.498 58.87,237.2324 Q58.6356,236.9668 58.6356,236.373 L58.6356,235.2168 Q58.6356,234.6074 58.87,234.3574 Q59.12,234.0918 59.5106,234.0918 Q59.8075,234.0918 60.0106,234.248 Q60.2137,234.4043 60.3231,234.7793 Q60.4325,235.1387 60.5418,235.2793 Q60.7918,235.5293 61.4012,235.7949 Q62.0106,236.0605 62.745,236.0605 Q63.8856,236.0605 64.6043,235.5293 Q65.0731,235.2012 65.0731,234.7324 Q65.0731,234.4199 64.8543,234.1387 Q64.6356,233.8574 64.12,233.6855 Q63.7918,233.5605 62.6356,233.3418 Q61.245,233.0762 60.5262,232.7168 Q59.8075,232.3574 59.3856,231.7012 Q58.9793,231.0293 58.9793,230.248 Q58.9793,229.0293 59.995,228.123 Q61.0262,227.2012 62.6668,227.2012 Q63.3231,227.2012 63.87,227.3418 Q64.4325,227.4824 64.9012,227.7793 Q65.2293,227.4668 65.5575,227.4668 Q65.9325,227.4668 66.1668,227.7324 Q66.4012,227.9824 66.4012,228.5918 L66.4012,229.873 Q66.4012,230.4824 66.1668,230.748 Q65.9325,230.998 65.5575,230.998 Q65.245,230.998 65.0106,230.8105 Q64.8231,230.6699 64.7293,230.248 Q64.6512,229.8262 64.5106,229.6387 Q64.2606,229.3262 63.7762,229.123 Q63.3075,228.9043 62.6668,228.9043 Q61.745,228.9043 61.2137,229.3262 Q60.6825,229.748 60.6825,230.2168 Q60.6825,230.5293 60.9012,230.8262 Q61.12,231.123 61.5418,231.2949 Q61.8231,231.4043 63.12,231.6699 Q64.4325,231.9199 65.1356,232.2324 Q65.8387,232.5293 66.3075,233.1855 Q66.7762,233.8418 66.7762,234.748 Q66.7762,236.0137 65.8856,236.7637 Q64.6981,237.7637 62.87,237.7637 Q62.1668,237.7637 61.495,237.5918 Q60.8387,237.4199 60.1981,237.0762 Z " fill="#000000"/><text fill="#000000" font-family="sans-serif" font-size="14" lengthAdjust="spacing" textLength="143.9512" x="81.5529" y="238.3105">ReportGeneratorVisitor</text><line style="stroke:#181818;stroke-width:0.5;" x1="23.5" x2="252.0928" y1="248.5137" y2="248.5137"/><line style="stroke:#181818;stroke-width:0.5;" x1="23.5" x2="252.0928" y1="256.5137" y2="256.5137"/><ellipse cx="33.5" cy="271.3242" fill="#84BE84" rx="3" ry="3" style="stroke:#038048;stroke-width:1.0;"/><text fill="#000000" font-family="sans-serif" font-size="14" lengthAdjust="spacing" textLength="204.5928" x="42.5" y="275.6211">VisitCompressor(c *Compressor)</text><ellipse cx="33.5" cy="289.9453" fill="#84BE84" rx="3" ry="3" style="stroke:#038048;stroke-width:1.0;"/><text fill="#000000" font-family="sans-serif" font-size="14" lengthAdjust="spacing" textLength="178.9512" x="42.5" y="294.2422">VisitDispenser(d *Dispenser)</text></g><!--reverse link BaseModule to Compressor--><g id="link_BaseModule_Compressor"><path codeLine="50" d="M821.9054,133.656 C761.1954,161.836 684.77,197.3137 624.09,225.4737 " fill="none" id="BaseModule-backto-Compressor" style="stroke:#181818;stroke-width:1.0;"/><polygon fill="#181818" points="832.79,128.6037,825.6636,127.5016,821.9054,133.656,829.0318,134.758,832.79,128.6037" style="stroke:#181818;stroke-width:1.0;"/><text fill="#000000" font-family="sans-serif" font-size="13" lengthAdjust="spacing" textLength="45.5317" x="588.4737" y="214.2913">extends</text></g><!--reverse link BaseModule to ControlCore--><g id="link_BaseModule_ControlCore"><path codeLine="51" d="M862.4155,137.3589 C831.5655,168.7989 794.17,206.9037 766.88,234.7037 " fill="none" id="BaseModule-backto-ControlCore" style="stroke:#181818;stroke-width:1.0;"/><polygon fill="#181818" points="870.82,128.7937,863.7626,130.2748,862.4155,137.3589,869.4728,135.8778,870.82,128.7937" style="stroke:#181818;stroke-width:1.0;"/><text fill="#000000" font-family="sans-serif" font-size="13" lengthAdjust="spacing" textLength="45.5317" x="721.9795" y="223.77">extends</text></g><!--reverse link BaseModule to Dispenser--><g id="link_BaseModule_Dispenser"><path codeLine="52" d="M965.2742,134.9665 C1010.3342,163.1465 1064.95,197.3137 1109.98,225.4737 " fill="none" id="BaseModule-backto-Dispenser" style="stroke:#181818;stroke-width:1.0;"/><polygon fill="#181818" points="955.1,128.6037,958.0662,135.1765,965.2742,134.9665,962.308,128.3937,955.1,128.6037" style="stroke:#181818;stroke-width:1.0;"/><text fill="#000000" font-family="sans-serif" font-size="13" lengthAdjust="spacing" textLength="45.5317" x="1050.3232" y="214.2913">extends</text></g><!--reverse link ModuleVisitor to ReportGeneratorVisitor--><g id="link_ModuleVisitor_ReportGeneratorVisitor"><path codeLine="54" d="M136.7358,155.7324 C137.0258,179.9224 137.19,192.2737 137.49,216.4337 " fill="none" id="ModuleVisitor-backto-ReportGeneratorVisitor" style="stroke:#181818;stroke-width:1.0;"/><polygon fill="none" points="136.52,137.7337,130.7362,155.8043,142.7353,155.6605,136.52,137.7337" style="stroke:#181818;stroke-width:1.0;"/><text fill="#000000" font-family="sans-serif" font-size="13" lengthAdjust="spacing" textLength="66.4663" x="66.219" y="205.325">implements</text></g><!--reverse link BaseModule to ControlData--><g id="link_BaseModule_ControlData"><path codeLine="56" d="M910.1606,140.6422 C913.7506,163.0222 916.68,181.2637 920.78,206.7737 " fill="none" id="BaseModule-backto-ControlData" style="stroke:#181818;stroke-width:1.0;"/><polygon fill="none" points="908.26,128.7937,905.2608,135.3515,910.1606,140.6422,913.1598,134.0844,908.26,128.7937" style="stroke:#181818;stroke-width:1.0;"/><text fill="#000000" font-family="sans-serif" font-size="13" lengthAdjust="spacing" textLength="27.46" x="879.9053" y="150.1464">uses</text></g><!--reverse link DispenserData to EmbeddedData--><g id="link_DispenserData_EmbeddedData"><path codeLine="57" d="M378.0864,158.907 C372.4564,181.157 368.89,195.2437 363.56,216.2937 " fill="none" id="DispenserData-backto-EmbeddedData" style="stroke:#181818;stroke-width:1.0;"/><polygon fill="none" points="381.03,147.2737,375.6804,152.1091,378.0864,158.907,383.436,154.0716,381.03,147.2737" style="stroke:#181818;stroke-width:1.0;"/><text fill="#000000" font-family="sans-serif" font-size="13" lengthAdjust="spacing" textLength="27.46" x="350.8111" y="168.7332">uses</text></g><!--SRC=[jLHDJyCm3BttLrWvROED2-9KAkrBY0C2CMa2JJjahJSgDKb9KiGqzjz9rxLDjsej1t9A7Flv-Ta9fmnLJ7q4HaCEEmVCyYEg58oemYSH9162wq9dTZtyJ2YZCkJO1Syx-gRh2iQ2QocY2TKKUjR1EVZiBTInOB54fOHiHXtwFiQwynMgK1l_ZCmyEtNX4lQ1I2F-d4O9la78zQdn7TQHeFhkrhgO2ORw8-IRQQGGb3QGcpeEX-B7GbwKhIQa3US-26vwfRRS7poRdMFno-BN1Wny4GbvlpA5U8p6xargz1OPvUMPYwaVvThCmD5njpylQnAg6Bd2V-XQ0Vs7fWthcZPgRDgKhJ08CAWVJVkscSTZaCz0QNkXMyCWWCLojTLePoWqhke1rT9IOpd4dVGfvGUZt8bZePlnA_Pr0hzYBAH-G8wIcfnvwcQbJ-ZuRVa4jOJs3ad_c47vhn3ezVj0y5iZ3nJ9hiiKf6r0yU9QHXJaY7CCg3I5WFkJ1eKiZf0XrtbSlP05Y9ML90eL0P72s2JJqSf9LkR-FCAUHkBy0W00]--></g></svg>